<svg xmlns="http://www.w3.org/2000/svg" viewBox="0 0 24.81 24.81"><defs><style>.cls-1{fill:#686767;}</style></defs><title>Asset 79</title><g id="Layer_2" data-name="Layer 2"><g id="Layer_1-2" data-name="Layer 1"><path class="cls-1" d="M12.4,0A12.4,12.4,0,0,0,3.63,21.17a12.38,12.38,0,0,0,17.54,0,12.38,12.38,0,0,0,0-17.54A12.31,12.31,0,0,0,12.4,0m7.68,20.08A10.85,10.85,0,1,1,4.73,4.73,10.85,10.85,0,1,1,20.08,20.08"/><path class="cls-1" d="M18.14,14l-5-2.13v-8a.78.78,0,1,0-1.55,0V12.4a.79.79,0,0,0,.47.72l5.43,2.32a.77.77,0,0,0,.3.06A.77.77,0,0,0,18.14,14"/><path class="cls-1" d="M4.65,11.63H3.88a.78.78,0,1,0,0,1.55h.77a.78.78,0,1,0,0-1.55"/><path class="cls-1" d="M19.38,12.4a.78.78,0,0,0,.78.78h.77a.78.78,0,1,0,0-1.55h-.77a.78.78,0,0,0-.78.77"/><path class="cls-1" d="M12.4,19.38a.78.78,0,0,0-.77.78v.77a.78.78,0,1,0,1.55,0v-.77a.78.78,0,0,0-.78-.78"/></g></g></svg>