<svg xmlns="http://www.w3.org/2000/svg" viewBox="0 0 40.13 25.61"><defs><style>.cls-1,.cls-2{fill:#ccc;}.cls-1{fill-rule:evenodd;}</style></defs><title>Asset 148</title><g id="Layer_2" data-name="Layer 2"><g id="Layer_1-2" data-name="Layer 1"><g id="View"><path class="cls-1" d="M39.74,12.53a.67.67,0,0,0-.16-.25C30.39.32,23.29.09,20.62,0h-.36C16.93,0,10.09,1.58,1.71,12.18a.86.86,0,0,0,0,1.23c8.4,10.62,15.24,12.2,18.57,12.2h.36c2.67-.09,9.77-.32,18.94-12.26a.73.73,0,0,0,.23-.45A.92.92,0,0,0,39.74,12.53ZM20.57,24.08h-.31c-3,0-9.22-1.47-17.09-11.27C11,3,17.24,1.53,20.26,1.53h.31c2.45.08,8.89.29,17.49,11.27C29.47,23.79,23,24,20.57,24.08Zm.24-18.6a7.33,7.33,0,1,0,7.33,7.33A7.33,7.33,0,0,0,20.81,5.48Zm0,13.13a5.81,5.81,0,1,1,5.8-5.8A5.81,5.81,0,0,1,20.81,18.61Z"/></g><rect class="cls-2" x="-2.43" y="11.63" width="44.99" height="1.4" transform="translate(-3.46 11.16) rotate(-28.73)"/></g></g></svg>