<svg xmlns="http://www.w3.org/2000/svg" viewBox="0 0 23.83 24.72"><defs><style>.cls-1{fill:#ccc;fill-rule:evenodd;}</style></defs><title>Asset 135</title><g id="Layer_2" data-name="Layer 2"><g id="Layer_1-2" data-name="Layer 1"><g id="Filter_2" data-name="Filter 2"><path class="cls-1" d="M11.91,0C6.18,0,0,1.19,0,3.8a1.63,1.63,0,0,0,.17.68.58.58,0,0,0,.12.33L8.44,15v9a.7.7,0,0,0,.35.6.73.73,0,0,0,.7,0l5.38-3.13a.68.68,0,0,0,.34-.61v-6L23.48,4.82s0,0,0,0a1.7,1.7,0,0,0,.33-1C23.83,1.19,17.65,0,11.91,0ZM14,14.29a.6.6,0,0,0-.14.43s0,3.71,0,5.19c0,.79.11.53-.34.79L9.79,22.82v-8a.71.71,0,0,0-.14-.42L3.46,6.58a31.36,31.36,0,0,0,8.45,1,31.8,31.8,0,0,0,8.31-1ZM22.41,3.94s0,0,0,0l-.23.28c-1,.85-4.53,2-10.24,2C5.1,6.22,1.38,4.62,1.38,3.8S5.1,1.38,11.91,1.38,22.45,3,22.45,3.8A.37.37,0,0,1,22.41,3.94Z"/></g></g></g></svg>