<svg xmlns="http://www.w3.org/2000/svg" viewBox="0 0 35.72 35.72"><defs><style>.cls-1{fill:#00aeef;}</style></defs><title>Asset 22</title><g id="Layer_2" data-name="Layer 2"><g id="Layer_1-2" data-name="Layer 1"><path class="cls-1" d="M17.86,35.72A17.86,17.86,0,1,1,35.72,17.86,17.88,17.88,0,0,1,17.86,35.72Zm0-34A16.16,16.16,0,1,0,34,17.86,16.18,16.18,0,0,0,17.86,1.7Z"/><path class="cls-1" d="M16.66,9.53a1.36,1.36,0,0,1,.34-1,1.26,1.26,0,0,1,1.7,0,1.32,1.32,0,0,1,.35,1,1.35,1.35,0,0,1-.35,1,1.26,1.26,0,0,1-1.7,0A1.42,1.42,0,0,1,16.66,9.53Zm2.2,18h-2V14.15h2Z"/></g></g></svg>