<svg xmlns="http://www.w3.org/2000/svg" viewBox="0 0 30.58 28.35"><defs><style>.cls-1{fill:#686767;}</style></defs><title>Asset 52</title><g id="Layer_2" data-name="Layer 2"><g id="Layer_1-2" data-name="Layer 1"><path class="cls-1" d="M19.91,14.4a10.53,10.53,0,0,0-4.62,1.07,10.53,10.53,0,0,0-4.62-1.07A10.69,10.69,0,0,0,0,25.08v3.27H1.7V25.08a9,9,0,0,1,9-9,8.73,8.73,0,0,1,2.82.47,8.67,8.67,0,0,1,1.8.83,9,9,0,0,1,4.35,7.68v3.27h1.7V25.08a10.65,10.65,0,0,0-4.26-8.51,8.84,8.84,0,0,1,2.83-.47,9,9,0,0,1,9,9v3.27h1.7V25.08A10.69,10.69,0,0,0,19.91,14.4Z"/><path class="cls-1" d="M10.67,13.49a6.72,6.72,0,0,0,4.62-1.85,6.74,6.74,0,1,0,0-9.8,6.74,6.74,0,1,0-4.62,11.65Zm5.7-10.33a5,5,0,1,1,0,7.17,6.7,6.7,0,0,0,0-7.17ZM10.67,1.7a5,5,0,0,1,4.62,7.06,5.18,5.18,0,0,1-1.08,1.57A5,5,0,1,1,10.67,1.7Z"/></g></g></svg>