<svg xmlns="http://www.w3.org/2000/svg" viewBox="0 0 35.46 35.46"><defs><style>.cls-1{fill:#00aeef;}</style></defs><title>Asset 24</title><g id="Layer_2" data-name="Layer 2"><g id="Layer_1-2" data-name="Layer 1"><path class="cls-1" d="M30.72,29.85h0c-.29.31-.59.59-.91.91a20.55,20.55,0,0,0-1.45,1.49,3.62,3.62,0,0,1-2.82,1.19H25.2a16.24,16.24,0,0,1-5.85-1.75A33.49,33.49,0,0,1,8.29,23a30.43,30.43,0,0,1-5.4-9,10.78,10.78,0,0,1-.84-4.68,3.5,3.5,0,0,1,1-2.23L5.64,4.6a1.73,1.73,0,0,1,1.14-.53,1.6,1.6,0,0,1,1.1.53l0,0c.46.42.89.87,1.35,1.34l.71.72,2,2.05a1.43,1.43,0,0,1,0,2.32l-.65.64c-.63.64-1.23,1.24-1.88,1.83l0,0a1.55,1.55,0,0,0-.39,1.7l0,.07a16.15,16.15,0,0,0,2.42,3.94h0a27.36,27.36,0,0,0,6.65,6.05c.31.19.62.35.92.5a6.31,6.31,0,0,1,.74.4l.09.05a1.75,1.75,0,0,0,.75.18,1.55,1.55,0,0,0,1.13-.51l2.57-2.56a1.66,1.66,0,0,1,1.13-.56,1.53,1.53,0,0,1,1.08.54v0l4.13,4.12a1.48,1.48,0,0,1,0,2.35M28,22A3.54,3.54,0,0,0,25.5,20.8,3.61,3.61,0,0,0,22.94,22l-2.37,2.35L20,24c-.27-.13-.53-.26-.75-.39A25.89,25.89,0,0,1,13.09,18a15.41,15.41,0,0,1-2-3.19c.62-.56,1.19-1.15,1.74-1.71l.63-.63a3.42,3.42,0,0,0,0-5.18l-2-2c-.24-.23-.48-.47-.7-.71-.45-.46-.92-.94-1.41-1.39a3.55,3.55,0,0,0-2.51-1.1,3.66,3.66,0,0,0-2.55,1.1v0L1.66,5.73A5.49,5.49,0,0,0,0,9.21a13.22,13.22,0,0,0,1,5.56,32.1,32.1,0,0,0,5.73,9.54A35.35,35.35,0,0,0,18.47,33.5a18.29,18.29,0,0,0,6.59,1.94l.47,0a5.64,5.64,0,0,0,4.33-1.86l0,0a18.33,18.33,0,0,1,1.31-1.35c.32-.31.65-.63,1-1a3.72,3.72,0,0,0,1.13-2.59,3.59,3.59,0,0,0-1.16-2.56Z"/><path class="cls-1" d="M19.16,8.43A9.63,9.63,0,0,1,27,16.28a1,1,0,0,0,1,.84l.17,0A1,1,0,0,0,29,15.93a11.67,11.67,0,0,0-9.5-9.49,1,1,0,0,0-1.17.83,1,1,0,0,0,.81,1.16"/><path class="cls-1" d="M35.44,15.64A19.16,19.16,0,0,0,19.79,0a1,1,0,0,0-1.16.82A1,1,0,0,0,19.46,2a17.11,17.11,0,0,1,14,14,1,1,0,0,0,1,.84l.17,0a1,1,0,0,0,.82-1.15"/></g></g></svg>