<svg xmlns="http://www.w3.org/2000/svg" viewBox="0 0 29.18 26.6"><defs><style>.cls-1{fill:#ccc;fill-rule:evenodd;}</style></defs><title>Asset 134</title><g id="Layer_2" data-name="Layer 2"><g id="Layer_1-2" data-name="Layer 1"><g id="Filter"><path class="cls-1" d="M3.11,16.07v9.76a.76.76,0,1,0,1.52,0V16.07a4.18,4.18,0,0,1-.72.08A5.29,5.29,0,0,1,3.11,16.07ZM4.63,6.92V.76a.76.76,0,1,0-1.52,0V6.93a4.26,4.26,0,0,1,.8-.08A4.18,4.18,0,0,1,4.63,6.92Zm10.7,7.57V.76a.77.77,0,0,0-1.53,0V14.5a3.94,3.94,0,0,1,1.53,0ZM26,3V.76a.77.77,0,0,0-1.53,0V3.05A4.26,4.26,0,0,1,25.3,3,4.41,4.41,0,0,1,26,3ZM14.57,15.17A3.87,3.87,0,1,0,18.44,19,3.87,3.87,0,0,0,14.57,15.17Zm0,6.21A2.34,2.34,0,1,1,16.91,19,2.35,2.35,0,0,1,14.57,21.38Zm9.93-9.2V25.83a.77.77,0,1,0,1.53,0V12.19a4.4,4.4,0,0,1-.73.07A4.26,4.26,0,0,1,24.5,12.18ZM3.87,7.5a3.87,3.87,0,1,0,3.87,3.87A3.88,3.88,0,0,0,3.87,7.5Zm0,6.21a2.34,2.34,0,1,1,2.34-2.34A2.34,2.34,0,0,1,3.87,13.71Zm21.44-10a3.87,3.87,0,1,0,3.87,3.87A3.87,3.87,0,0,0,25.31,3.69Zm0,6.21a2.34,2.34,0,1,1,2.34-2.34A2.34,2.34,0,0,1,25.31,9.9ZM13.8,23.63v2.2a.77.77,0,1,0,1.53,0V23.64a3.94,3.94,0,0,1-1.53,0Z"/></g></g></g></svg>