<svg xmlns="http://www.w3.org/2000/svg" viewBox="0 0 29.15 29.15"><defs><style>.cls-1{fill:#686767;}</style></defs><title>Asset 54</title><g id="Layer_2" data-name="Layer 2"><g id="Layer_1-2" data-name="Layer 1"><path class="cls-1" d="M.91,12.76H11.84a.91.91,0,0,0,.91-.91V.91A.91.91,0,0,0,11.84,0H.91A.91.91,0,0,0,0,.91V11.85a.91.91,0,0,0,.91.91M1.82,1.82h9.11v9.11H1.82Z"/><path class="cls-1" d="M29.15.91A.91.91,0,0,0,28.24,0H17.31a.91.91,0,0,0-.91.91V11.85a.91.91,0,0,0,.91.91H28.24a.91.91,0,0,0,.91-.91Zm-1.82,10H18.22V1.82h9.11Z"/><path class="cls-1" d="M.91,29.15H12.3a.91.91,0,0,0,.91-.91V16.86a.92.92,0,0,0-.91-.92H.91a.92.92,0,0,0-.91.92V28.24a.91.91,0,0,0,.91.91m.91-11.38h9.57v9.56H1.82Z"/><path class="cls-1" d="M28.24,16.4H17.31a.91.91,0,0,0-.91.91V28.24a.91.91,0,0,0,.91.91H28.24a.9.9,0,0,0,.91-.91V17.31a.91.91,0,0,0-.91-.91m-.91,10.93H18.22V18.22h9.11Z"/></g></g></svg>